#!OML:ASF E:/inclinewalkrobotboard/Project1/Captureday1/Session1/subject1.ASF
:FULLY-SPECIFIED
:DEGREES
213
root 0 0 0 1.1079878791892162 -3.740169706449163 1.802835354179829
lowerback 11.995298051216995 0.8620099236769179 -0.07693620355614456
upperback -4.182546162090144 1.0910350932746513 -0.5396322156611687
thorax -11.297384212838214 0.5003895497209558 -0.7746335184952617
lowerneck -5.922183673178221 1.4701433716494687 4.520604036882294
upperneck 18.04096793345224 2.915491031967006 -8.266474255993812
head 6.615874715919977 1.0617315336567419 -3.194347580356496
rclavicle -1.2338708721529447E-15 3.991148144765483E-16
rhumerus 19.641349355940605 14.047373628173833 -47.808167401736995
rradius 72.07055623602177
rwrist 27.218714516062704
rhand -34.88332207967822 -57.528890199950666
rfingers 7.125020000000043
rthumb -8.024825442443316 -87.30844257843682
lclavicle 1.0735714929226937E-15 -2.7157108106137775E-15
lhumerus 20.59941564962761 -12.31356791693583 45.617040181340954
lradius 69.53484435493337
lwrist -22.20384985455095
lhand -44.756791361789055 -70.15031229694853
lfingers 7.125020000000015
lthumb -17.56459913146853 -41.043699733501654
rfemur -25.191178641858333 -2.162450110411848 16.896467861602556
rtibia 54.19814707261149
rfoot -28.22682417558427 -16.76454211075773
rtoes -17.85486064857607
lfemur -27.44275778616306 2.482337971869849 -18.26494790921548
ltibia 53.66169161888464
lfoot -31.88587546961458 -3.2530032296866565
ltoes -19.563658847523953
214
root 0 0 0 1.107951640686404 -3.740190921803359 1.8028296982696776
lowerback 11.995320779760334 0.8620097333324953 -0.07692134069532916
upperback -4.18250755285351 1.0910385145260786 -0.5396226072949633
thorax -11.297354399433493 0.5003904863740711 -0.7746328119253854
lowerneck -5.922067565991878 1.4701143457617991 4.520640613802887
upperneck 18.04082275426289 2.915453036365905 -8.266556895081223
head 6.615808071288746 1.0617147814442454 -3.194382439351407
rclavicle -1.235086617487175E-15 3.9920984999951797E-16
rhumerus 19.6413652928857 14.04739475819457 -47.80817354076051
rradius 72.07058966505441
rwrist 27.218736806431163
rhand -34.8833767680034 -57.52903219822529
rfingers 7.125020000000043
rthumb -8.024882102895754 -87.3085882269642
lclavicle 1.0716265732144006E-15 -2.7156363017380463E-15
lhumerus 20.599495510452392 -12.31359491207887 45.61698947754377
lradius 69.53488542018039
lwrist -22.20387332439362
lhand -44.756815381560266 -70.15031349613669
lfingers 7.125020000000015
lthumb -17.56461200832559 -41.04369790027461
rfemur -25.1911561929783 -2.1624443346553925 16.89648557344824
rtibia 54.19812345675727
rfoot -28.226906123418413 -16.764580963234977
rtoes -17.85486049082194
lfemur -27.442827354222242 2.4823224207732677 -18.26493632280781
ltibia 53.66165827816034
lfoot -31.885987665616657 -3.252925388660046
ltoes -19.563718556645348
215
root 0 0 0 1.1350661574679046 -3.7068487032973705 1.811000258410839
lowerback 11.989426664888443 0.8611694203480575 -0.09014042740991543
upperback -4.202338165120445 1.0873795368819537 -0.5464374457827816
thorax -11.31616509015289 0.49897108708750904 -0.773945998265794
lowerneck -5.9940437285918895 1.48366224575858 4.496718608419282
upperneck 18.112359549891117 2.9311266588975795 -8.214645397541513
head 6.651293677001137 1.0688084383633798 -3.172815055618175
rclavicle -1.6285008055844864E-15 4.0270462233043876E-16
rhumerus 19.515190731234803 13.935676398117167 -47.82823897016214
rradius 71.94812809401603
rwrist 27.198275761726634
rhand -34.806834765895886 -57.31338373606384
rfingers 7.125020000000042
rthumb -7.951597870625642 -87.10638555825209
lclavicle 4.2290460442931567E-16 -2.493466513099523E-15
lhumerus 20.49943353722299 -12.29987393734677 45.694073975852355
lradius 69.43777967121622
lwrist -22.122453244830684
lhand -44.7095020072413 -69.83425188284923
lfingers 7.125020000000015
lthumb -17.516403528125622 -40.72699415988376
rfemur -25.167177310606412 -2.156972739112008 16.88102638199514
rtibia 54.16881563480857
rfoot -28.1416624641823 -16.733265275150256
rtoes -17.90230456231081
lfemur -27.325275001030093 2.470040131650454 -18.27710825804231
ltibia 53.567683374381275
lfoot -31.679008555596923 -3.320876575358716
ltoes -19.518813707214502
216
root 0 0 0 1.1447691194557525 -3.691540099216565 1.8136536488798
lowerback 11.992497155483976 0.8633139502035503 -0.09424192149831387
upperback -4.206287214391299 1.0892902877124808 -0.5499291039216735
thorax -11.32243424977875 0.4999976709752708 -0.775799689252825
lowerneck -6.029785707590685 1.4874346718944582 4.491118750441499
upperneck 18.13074493614397 2.9344478155559406 -8.198229336950027
head 6.6632569780095 1.0702563510399083 -3.1662355260297175
rclavicle -1.0943798085635853E-15 5.189900533291804E-16
rhumerus 19.521968219576955 13.948736018158769 -47.85008153570805
rradius 71.95710986040125
rwrist 27.173649489695734
rhand -34.796331621053916 -57.27837763891822
rfingers 7.12502000000004
rthumb -7.9403827113353085 -87.05839879929059
lclavicle 1.4569673332150842E-15 -2.2467594021663138E-15
lhumerus 20.43566904493088 -12.271893150496638 45.71052591910209
lradius 69.38466991423347
lwrist -22.117156966456477
lhand -44.667491547345925 -69.6904212035103
lfingers 7.125020000000015
lthumb -17.479962720893756 -40.55328387302073
rfemur -25.155503644317744 -2.156617433895508 16.890675842806864
rtibia 54.16819777984222
rfoot -28.12222122190037 -16.737681475993938
rtoes -17.8816525530287
lfemur -27.301005865254723 2.4627845747101844 -18.270510042759923
ltibia 53.7226654211119
lfoot -31.6093694315729 -3.354172373916763
ltoes -19.422822452972014
217
root 0 0 0 1.1219918952594412 -3.724079719815379 1.8076968736734638
lowerback 11.996077004202709 0.8629906246486536 -0.08333671452378164
upperback -4.190598925032481 1.0910228104246393 -0.5439021477337104
thorax -11.30694257589416 0.5005766697153096 -0.7756238876378818
lowerneck -5.960659393302198 1.4760520652300804 4.510650464199007
upperneck 18.070595456608213 2.9218553445506528 -8.243280272892038
head 6.632080787667377 1.0645893229558054 -3.184833411720695
rclavicle -1.2457420158467545E-15 4.059667799306868E-16
rhumerus 19.609784638373824 14.01780711054861 -47.8201195255781
rradius 72.04711953822155
rwrist 27.21887326722305
rhand -34.906310123586955 -57.54389619362895
rfingers 7.125020000000043
rthumb -8.047225605458653 -87.32381854448057
lclavicle 1.1076730843303178E-15 -2.726449207976292E-15
lhumerus 20.575723172657696 -12.290913526322571 45.64091669758463
lradius 69.5089323256003
lwrist -22.195497797713664
lhand -44.75767201107535 -70.17182371684324
lfingers 7.125020000000016
lthumb -17.565455632199942 -41.062469051538045
rfemur -25.19646511925145 -2.163793778884852 16.890985974901305
rtibia 54.20163566434056
rfoot -28.207886903002766 -16.76197567053307
rtoes -17.85176136807446
lfemur -27.448148408928148 2.477010701937293 -18.272545462805162
ltibia 53.67661327311254
lfoot -31.870968482060935 -3.2676853695683263
ltoes -19.49297741562714
218
root 0 0 0 1.1160313934402595 -3.730731946345346 1.805791047103364
lowerback 11.996485602394943 0.862660532327033 -0.08050431764948943
upperback -4.186589595153306 1.0911748640442405 -0.5421137545334661
thorax -11.302658081848051 0.5005621945826659 -0.7753283727955806
lowerneck -5.943288770324772 1.4730150589202093 4.515351650431054
upperneck 18.055614019151882 2.9183858019817244 -8.25418838564991
head 6.624269203291656 1.0630344259725313 -3.1893497681696266
rclavicle -1.28074413172574E-15 4.237930660432077E-16
rhumerus 19.62392754517873 14.03079124666943 -47.81875112781517
rradius 72.06124853176831
rwrist 27.220409875742824
rhand -34.911060252782214 -57.56217712418249
rfingers 7.125020000000043
rthumb -8.051855510561786 -87.34269140535503
lclavicle 1.0101371180020277E-15 -2.696128036346219E-15
lhumerus 20.591154393627523 -12.295965638458508 45.63579060161014
lradius 69.52321850767088
lwrist -22.200295911692425
lhand -44.76654315495112 -70.21129357452128
lfingers 7.125020000000016
lthumb -17.57380281236178 -41.1050664924369
rfemur -25.194546777137553 -2.163032668818484 16.89440295413417
rtibia 54.19714823663062
rfoot -28.221656364688673 -16.76518315236329
rtoes -17.853418475147542
lfemur -27.45032730530479 2.4780680986613843 -18.267827097250322
ltibia 53.664417604637634
lfoot -31.883476822026136 -3.2577771352466374
ltoes -19.527527363299463
219
root 0 0 0 1.1129520577009853 -3.734177633714363 1.8047089188488257
lowerback 11.996307244429875 0.8624483000393878 -0.07910568402064017
upperback -4.184821557637863 1.091180860983602 -0.5411742572441376
thorax -11.300554260509141 0.5005219159691952 -0.7751075650984061
lowerneck -5.934946917638371 1.47172643582238 4.517527172176952
upperneck 18.04914879583755 2.9169929837707973 -8.25923221665855
head 6.620739200333372 1.0624091221019356 -3.1914186536725104
rclavicle -1.2636625907441777E-15 4.0421001963864275E-16
rhumerus 19.629483523594857 14.036253076970986 -47.816066467539244
rradius 72.06423228176624
rwrist 27.21953100121007
rhand -34.9030823987016 -57.552421674807306
rfingers 7.125020000000043
rthumb -8.044122517551175 -87.33275166683569
lclavicle 1.029801225609383E-15 -2.7159266092060436E-15
lhumerus 20.593958934570384 -12.301180787511719 45.62927746647032
lradius 69.5271277295607
lwrist -22.202047303863594
lhand -44.76384497188324 -70.19432351304937
lfingers 7.125020000000016
lthumb -17.571188146001653 -41.08794677489939
rfemur -25.19297330699513 -2.1627274782992463 16.895569857985443
rtibia 54.196827284550004
rfoot -28.224565672419516 -16.765249073835857
rtoes -17.854284674429316
lfemur -27.44840008973693 2.478924586425838 -18.26638112614591
ltibia 53.66281843688892
lfoot -31.884921513631834 -3.2558561299939868
ltoes -19.540130076397062
220
root 0 0 0 1.1101379309023731 -3.7376409034597007 1.8036331484474197
lowerback 11.995584052873857 0.8621783649915066 -0.07789647819198223
upperback -4.183635705736846 1.0910632316971052 -0.5402984520886113
thorax -11.298786296832292 0.5004314614662106 -0.7748179686720389
lowerneck -5.927783543203645 1.4709144158757836 4.519220737348983
upperneck 18.044895904115336 2.9162717811607477 -8.263214267970929
head 6.6181162676642895 1.0620825937451266 -3.193023414549369
rclavicle -1.2695615250287883E-15 4.201863730081889E-16
rhumerus 19.636064761070394 14.041705654560026 -47.81164982873818
rradius 72.06849976194214
rwrist 27.22030811256224
rhand -34.89491326245591 -57.544705377113004
rfingers 7.125020000000043
rthumb -8.036084162130807 -87.32473630551453
lclavicle 1.0084217602879086E-15 -2.6925910178886123E-15
lhumerus 20.597291124647587 -12.305937538032257 45.62573326552441
lradius 69.53081879709218
lwrist -22.20235186469283
lhand -44.76280160690751 -70.18462873078337
lfingers 7.125020000000016
lthumb -17.570103763422196 -41.078728274208714
rfemur -25.190782097765872 -2.1625978941077943 16.89522571685129
rtibia 54.195889910258416
rfoot -28.22424382579802 -16.76413342692475
rtoes -17.856227531952143
lfemur -27.444075701277704 2.4798684919476814 -18.264641799623313
ltibia 53.65935756550706
lfoot -31.882482448902003 -3.253975233775727
ltoes -19.555955881095432
